<?xml version="1.0" encoding="UTF-8" standalone="no"?>
<svg width="512px" height="512px" viewBox="0 0 512 512" version="1.1" xmlns="http://www.w3.org/2000/svg" xmlns:xlink="http://www.w3.org/1999/xlink">
    <!-- Generator: Sketch 45.2 (43514) - http://www.bohemiancoding.com/sketch -->
    <title>logo</title>
    <desc>Created with Sketch.</desc>
    <defs>
        <linearGradient x1="31.2913274%" y1="17.9144994%" x2="64.5694636%" y2="50%" id="linearGradient-1">
            <stop stop-color="#3023AE" offset="0%"></stop>
            <stop stop-color="#C86DD7" offset="100%"></stop>
        </linearGradient>
    </defs>
    <g id="Page-1" stroke="none" stroke-width="1" fill="none" fill-rule="evenodd">
        <g id="logo" fill="url(#linearGradient-1)" fill-rule="nonzero">
            <path d="M189.048307,195.990007 C189.048307,195.169645 189.04356,178.563389 189.04356,178.563389 C202.695196,188.810629 229.163042,193.562902 255.502725,193.562902 C281.837661,193.562902 308.296013,188.810629 321.952396,178.573097 C321.952396,178.573097 321.947649,195.150229 321.952396,195.965736 L321.952396,196.019132 C321.900182,208.047868 292.114362,217.833958 255.502725,217.833958 C218.85786,217.833958 189.048307,208.033305 189.048307,195.990007 Z M321.952396,212.552576 L321.957143,232.396592 C318.278416,243.318568 289.707763,251.813437 255.502725,251.813437 C221.297687,251.813437 192.722287,243.318568 189.04356,232.396592 L189.04356,212.542868 C202.695196,222.790108 229.163042,227.542381 255.502725,227.542381 C281.837661,227.542381 308.296013,222.790108 321.952396,212.552576 Z M189.048307,162.010528 C189.048307,161.190166 189.04356,144.583909 189.04356,144.583909 C202.695196,154.831149 229.163042,159.583422 255.502725,159.583422 C281.837661,159.583422 308.296013,154.831149 321.952396,144.593618 C321.952396,144.593618 321.947649,161.170749 321.952396,161.986257 L321.952396,162.039653 C321.900182,174.068389 292.114362,183.854479 255.502725,183.854479 C218.85786,183.854479 189.048307,174.053826 189.048307,162.010528 Z M255.502725,149.875 C218.800963,149.875 189.048307,140.09513 189.048307,128.031049 C189.048307,115.966968 218.800963,106.187098 255.502725,106.187098 C292.204486,106.187098 321.957143,115.966968 321.957143,128.031049 C321.957143,140.09513 292.204486,149.875 255.502725,149.875 Z M256,512 C114.615104,512 0,397.384896 0,256 C0,114.615104 114.615104,0 256,0 C397.384896,0 512,114.615104 512,256 C512,397.384896 397.384896,512 256,512 Z M256,508.947393 C395.698988,508.947393 508.947393,395.698988 508.947393,256 C508.947393,116.301012 395.698988,3.05260651 256,3.05260651 C116.301012,3.05260651 3.05260651,116.301012 3.05260651,256 C3.05260651,395.698988 116.301012,508.947393 256,508.947393 Z M122.078095,351.320122 L177.966959,300.297985 L182.990678,300.297985 L126.473848,351.320122 L185.816519,411.447749 L180.949792,411.447749 L122.078095,351.634105 L121.921104,351.634105 L121.921104,411.447749 L118.467298,411.447749 L118.467298,300.297985 L121.921104,300.297985 L121.921104,351.320122 L122.078095,351.320122 Z M199.003779,374.554819 C199.003779,378.950594 199.657903,383.293973 200.966169,387.585087 C202.274435,391.876201 204.262971,395.722447 206.931834,399.12394 C209.600698,402.525433 212.975975,405.272751 217.057766,407.365978 C221.139558,409.459204 225.953906,410.505801 231.500956,410.505801 C237.152667,410.505801 242.176335,409.380709 246.57211,407.130491 C250.967886,404.880272 254.787966,401.609655 258.032467,397.318541 L260.544326,399.516418 C256.985842,404.121516 252.825617,407.627618 248.063527,410.034828 C243.301437,412.442038 237.780635,413.645625 231.500956,413.645625 C226.163229,413.645625 221.29655,412.677523 216.900775,410.741288 C212.505,408.805054 208.711084,406.110065 205.518914,402.656242 C202.326743,399.202418 199.867239,395.068358 198.140328,390.253938 C196.413416,385.439517 195.549973,380.20653 195.549973,374.554819 C195.549973,369.11243 196.439581,364.088762 198.218823,359.483664 C199.998066,354.878566 202.431405,350.901496 205.518914,347.552334 C208.606422,344.203171 212.243349,341.612843 216.429801,339.78127 C220.616254,337.949696 225.116623,337.033924 229.931044,337.033924 C235.582755,337.033924 240.501763,338.028191 244.688216,340.016756 C248.874669,342.005321 252.354605,344.621815 255.12813,347.866316 C257.901655,351.110817 259.968685,354.800073 261.329282,358.934195 C262.689879,363.068317 263.370168,367.280872 263.370168,371.571986 L263.370168,374.554819 L199.003779,374.554819 Z M260.073353,371.571986 C259.968691,366.862227 259.157578,362.571177 257.639989,358.698708 C256.1224,354.826239 254.05537,351.503292 251.438837,348.729767 C248.822304,345.956243 245.682512,343.810718 242.019366,342.293129 C238.35622,340.775539 234.274489,340.016756 229.774053,340.016756 C224.331664,340.016756 219.674305,341.141849 215.801837,343.392067 C211.929368,345.642285 208.763411,348.415769 206.30387,351.7126 C203.844329,355.009432 202.038948,358.463203 200.887673,362.074019 C199.736399,365.684834 199.16077,368.850792 199.16077,371.571986 L260.073353,371.571986 Z M300.734071,435.31041 C299.05949,439.810846 296.835471,443.290783 294.061946,445.750324 C291.288421,448.209865 287.703824,449.439617 283.308049,449.439617 C282.366097,449.439617 281.26717,449.334957 280.011234,449.125635 C278.755298,448.916312 277.708701,448.654663 276.87141,448.340679 L277.813357,445.357846 C278.441325,445.567169 279.304768,445.776488 280.403712,445.985811 C281.502656,446.195133 282.575418,446.299793 283.622032,446.299793 C285.819919,446.299793 287.72996,445.881154 289.35221,445.043864 C290.97446,444.206573 292.361202,443.133811 293.512477,441.825544 C294.663751,440.517278 295.631854,439.025876 296.416814,437.351295 C297.201774,435.676714 297.908227,434.002158 298.536195,432.327577 L305.443807,413.488634 L276.87141,339.2318 L280.639199,339.2318 L307.17071,409.563854 L332.760275,339.2318 L336.528063,339.2318 L300.734071,435.31041 Z M377.031791,411.447749 L372.479046,411.447749 L344.06364,339.2318 L347.831429,339.2318 L374.676923,407.993942 L374.990905,407.993942 L400.894452,339.2318 L404.66224,339.2318 L377.031791,411.447749 Z"></path>
        </g>
    </g>
</svg>