<?xml version="1.0" encoding="UTF-8" standalone="no"?>
<svg width="512" height="512" viewBox="0 0 512 512" version="1.1" xmlns="http://www.w3.org/2000/svg" xmlns:xlink="http://www.w3.org/1999/xlink">
    <defs>
        <linearGradient x1="30%" y1="20%" x2="65%" y2="50%" id="gradient">
            <stop stop-color="#24C6DC" offset="0%"></stop>
            <stop stop-color="#C86DD7" offset="100%"></stop>
        </linearGradient>
    </defs>
    <path fill="url(#gradient)" fill-rule="nonzero" d="M189 196v-17.4c13.7 10.2 40.2 15 66.5 15 26.3 0 52.8-4.8 66.5-15V196c0 12-30 21.8-66.5 21.8-36.6 0-66.5-9.8-66.5-21.8zm133 16.6v19.8c-3.7 11-32.3 19.4-66.5 19.4s-62.8-8.5-66.5-19.4v-20c13.7 10.4 40.2 15 66.5 15 26.3 0 52.8-4.6 66.5-14.8zM189 162v-17.4c13.7 10.2 40.2 15 66.5 15 26.3 0 52.8-4.8 66.5-15V162c0 12-30 22-66.5 22-36.6 0-66.5-10-66.5-22zm66.5-12c-36.7 0-66.5-10-66.5-22s29.8-21.8 66.5-21.8S322 116 322 128s-29.8 22-66.5 22zm.5 362C114.6 512 0 397.4 0 256S114.6 0 256 0s256 114.6 256 256-114.6 256-256 256zm0-3c139.7 0 253-113.3 253-253S395.6 3 256 3 3 116.4 3 256s113.3 253 253 253zM122 351.2l56-51h5l-56.5 51 59.3 60h-5l-58.7-59.7v59.8h-3.5v-111h3.4v51zm77 23.3c0 4.4.7 8.7 2 13 1.3 4.3 3.3 8 6 11.5 2.6 3.5 6 6.3 10 8.4 4 2 9 3 14.5 3 5.7 0 10.7-1 15-3.3 4.5-2 8.3-5.4 11.5-9.7l2.5 2.2c-3.5 4.6-7.7 8-12.4 10.5-4.7 2.4-10.2 3.6-16.5 3.6-5.3 0-10.2-1-14.6-3-4.5-1.8-8.3-4.5-11.5-8-3.2-3.4-5.6-7.5-7.4-12.3-1.6-5-2.5-10-2.5-15.7 0-5.5 1-10.5 2.7-15 1.8-4.7 4.2-8.7 7.3-12 3-3.4 6.7-6 11-7.8 4-2 8.6-2.8 13.4-2.8 5.6 0 10.5 1 14.7 3 4.2 2 7.7 4.6 10.4 8 3 3 5 6.8 6.3 11 1.4 4 2 8.3 2 12.6v3H199zm61-3c0-4.7-.8-9-2.4-13-1.5-3.8-3.5-7-6.2-10-2.6-2.6-5.7-4.8-9.4-6.3-3.6-1.5-7.7-2.3-12.2-2.3-5.5 0-10 1-14 3.4-4 2.2-7 5-9.5 8.3-2.5 3.3-4.3 6.8-5.4 10.4-1.3 3.7-1.8 7-1.8 9.6h61zm40.7 63.7c-1.6 4.5-4 8-6.6 10.5-2.7 2.4-6.3 3.6-10.7 3.6-1 0-2 0-3.3-.3-1.2 0-2.3-.3-3-.7l.8-3c.6.3 1.5.5 2.6.7 1 .2 2.2.3 3.2.3 2.2 0 4-.4 5.8-1.3 1.6-.8 3-2 4-3.2 1.3-1.3 2.2-2.8 3-4.4.8-1.7 1.5-3.4 2-5l7-19-28.5-74.2h3.6l26.6 70.4 25.6-70.4h3.7l-35.8 96zm76.3-24h-4.5l-28.4-72h3.8l27 68.7h.2l26-68.8h3.7L377 411.4z"></path>
</svg>
