<?xml version="1.0" encoding="UTF-8"?><svg id="a" xmlns="http://www.w3.org/2000/svg" viewBox="0 0 830 820"><defs><style>.c{fill:#005ac3;}.d{fill:#c85ae6;}.e{fill:#1e96dc;}.f{fill:#141e82;}.g{fill:#28c8c8;}.h{fill:#643cb4;}</style></defs><path class="g" d="m808.18,233.93c16.91,9.61,16.91,33.98,0,43.59l-97.18,55.36-296-168.6L119,332.88l-97.18-55.36c-16.91-9.61-16.91-33.98,0-43.59L415,10l393.18,223.93Z"/><path class="e" d="m808.18,388.2c16.91,9.61,16.91,33.98,0,43.59l-97.18,55.36-135.46-77.14,135.46-77.14,97.18,55.33Z"/><path class="d" d="m808.18,542.48c16.91,9.64,16.91,33.98,0,43.62l-393.18,223.9L21.82,586.1c-16.91-9.64-16.91-33.98,0-43.62l97.18-55.33,296,168.57,296-168.57,97.18,55.33Z"/><polygon class="c" points="415 164.28 711 332.88 575.54 410.01 415 318.58 254.46 410.01 119 332.88 415 164.28"/><polygon class="h" points="575.54 410.01 711 487.15 415 655.72 119 487.15 254.46 410.01 415 501.45 575.54 410.01"/><polygon class="f" points="415 318.58 575.54 410.01 415 501.45 254.46 410.01 415 318.58"/><path class="e" d="m254.46,410.01l-135.46,77.14-97.18-55.36c-16.91-9.61-16.91-33.98,0-43.59l97.18-55.33,135.46,77.14Z"/></svg>