<?xml version="1.0" encoding="UTF-8"?><svg id="a" xmlns="http://www.w3.org/2000/svg" viewBox="0 0 1420 540"><defs><style>.c{fill:#005ac3;}.d{fill:#323232;}.e{fill:#c85ae6;}.f{fill:#1e96dc;}.g{fill:#141e82;}.h{fill:#28c8c8;}.i{fill:#643cb4;}</style></defs><g><path class="h" d="m531.67,155.05c11.04,6.28,11.04,22.19,0,28.46l-63.44,36.14-193.25-110.07-193.25,110.07-63.44-36.14c-11.04-6.28-11.04-22.19,0-28.46L274.97,8.85l256.69,146.2Z"/><path class="f" d="m531.67,255.77c11.04,6.28,11.04,22.19,0,28.46l-63.44,36.14-88.44-50.36,88.44-50.36,63.44,36.12Z"/><path class="e" d="m531.67,356.49c11.04,6.29,11.04,22.19,0,28.48l-256.69,146.18L18.28,384.97c-11.04-6.29-11.04-22.19,0-28.48l63.44-36.12,193.25,110.06,193.25-110.06,63.44,36.12Z"/><polygon class="c" points="274.97 109.57 468.22 219.65 379.79 270.01 274.97 210.31 170.16 270.01 81.72 219.65 274.97 109.57"/><polygon class="i" points="379.79 270.01 468.22 320.37 274.97 430.43 81.72 320.37 170.16 270.01 274.97 329.7 379.79 270.01"/><polygon class="g" points="274.97 210.31 379.79 270.01 274.97 329.7 170.16 270.01 274.97 210.31"/><path class="f" d="m170.16,270.01l-88.44,50.36-63.44-36.14c-11.04-6.28-11.04-22.19,0-28.46l63.44-36.12,88.44,50.36Z"/></g><g><path class="d" d="m851.66,382.86h0c-.71,1.21-2.01,1.96-3.41,1.96h-56.19s-70.43-92.97-70.43-92.97l-16.9,19.37v73.6h-49.58c-2.96,0-5.35-2.4-5.35-5.35v-218.2c0-2.96,2.4-5.35,5.35-5.35h49.58v93.32l81.7-93.32h57.7c1.35,0,2.59.71,3.27,1.88h0c.82,1.4.65,3.17-.42,4.39l-85.19,97.26,89.63,119.05c.96,1.27,1.06,2.99.26,4.37Z"/><path class="d" d="m893.63,308.75c2.46,26.76,22.54,40.15,46.84,40.15,17.29,0,35.22-6.2,47.22-17.96.9-.88,2.09-1.41,3.35-1.41h0c1.22,0,2.39.47,3.28,1.31l21.46,20.53c.94.89,1.46,2.13,1.46,3.43v.41c0,1.16-.41,2.28-1.18,3.15-19.82,22.23-51.48,30.69-78.06,30.69-55.29,0-97.2-36.98-97.2-91.91s38.74-92.62,94.03-92.62c26.06,0,48.6,9.16,64.8,24.65,16.2,16.2,25.71,38.74,25.71,65.5,0,5.28-.35,9.86-1.05,14.09h-130.65Zm.35-30.99h78.53c-1.41-9.51-5.28-17.96-10.92-23.6-7.04-7.39-16.9-11.27-28.17-11.27-21.83,0-36.63,13.73-39.44,34.86Z"/><path class="d" d="m1211.48,210.56c.92,1.27,1.11,2.93.48,4.37l-78.58,181.5c-15.85,36.98-39.8,46.49-64.1,46.49-12.41,0-22.91-2.56-31.18-7.06-.8-.44-1.44-1.12-1.84-1.94l-.34-.68c-.51-1.02-.62-2.2-.29-3.3l8.78-29.77c.37-1.26,1.27-2.29,2.46-2.84h0c1.21-.55,2.59-.53,3.79.03,4.2,1.96,10,3.29,15.81,3.29,7.04,0,15.14-1.76,20.78-14.09l7.4-15.49-71.59-156.4c-.59-1.3-.49-2.8.28-4h0c.77-1.21,2.11-1.95,3.54-1.95h51.22l42.61,110.58,42.26-110.58h44.93c1.42,0,2.75.68,3.59,1.82h0Z"/><path class="d" d="m1409.63,214.84l-76.12,169.98h-39.09l-76.19-170.13c-.58-1.3-.47-2.8.29-3.99h0c.77-1.22,2.12-1.95,3.56-1.95h49.1l42.96,117.27,45.78-117.27h45.74c1.35,0,2.62.65,3.41,1.74l.11.16c.89,1.22,1.06,2.83.44,4.21Z"/></g></svg>