<?xml version="1.0" encoding="UTF-8"?><svg id="a" xmlns="http://www.w3.org/2000/svg" viewBox="0 0 830 820"><defs><style>.c{fill:#323232;}</style></defs><path class="c" d="m811.41,427.71c6.45-3.67,10.3-10.29,10.3-17.71,0-7.42-3.85-14.04-10.3-17.7h0s-96.09-54.71-96.09-54.71h0s0,0,0,0l-127.19,72.43,63.59,36.21,63.59,36.21,96.09-54.73Zm0,121.12l-96.09-54.71-300.32,171.03L114.68,494.12l-96.09,54.71c-6.45,3.68-10.3,10.3-10.3,17.72s3.85,14.04,10.31,17.72l396.41,225.74,396.41-225.74c6.45-3.68,10.3-10.3,10.3-17.72s-3.85-14.04-10.3-17.72ZM114.68,337.59h0s-96.09,54.71-96.09,54.71c-6.45,3.67-10.3,10.29-10.3,17.71,0,7.42,3.85,14.04,10.3,17.7l96.09,54.74,63.59-36.21,63.59-36.21-127.19-72.43h0Zm-96.09-66.41l96.09,54.74,300.32-171.06,300.32,171.06,96.09-54.73c6.45-3.67,10.3-10.29,10.3-17.71,0-7.42-3.85-14.04-10.3-17.7h0S415,10,415,10L18.59,235.77c-6.45,3.67-10.3,10.29-10.3,17.71,0,7.42,3.85,14.04,10.3,17.7Zm686.48,217.1l-63.59-36.21-63.59-36.21-162.88,92.77-162.88-92.77-63.59,36.21-63.59,36.21,290.07,165.19,290.07-165.19Zm0-156.53l-290.07-165.22L124.93,331.75l127.19,72.43,162.88-92.77,162.88,92.77,127.19-72.43Zm-290.07,165.19l152.63-86.93h0s0,0,0,0l-152.63-86.93-152.63,86.93h0s0,0,0,0l152.63,86.93Z"/></svg>