<?xml version="1.0" encoding="UTF-8"?><svg id="a" xmlns="http://www.w3.org/2000/svg" viewBox="0 0 736 1020"><defs><style>.c{fill:#323232;}</style></defs><g><path class="c" d="m200.51,953.56h0c-.67,1.14-1.89,1.84-3.2,1.84h-52.8s-66.19-87.37-66.19-87.37l-15.89,18.2v69.16H15.83c-2.78,0-5.03-2.25-5.03-5.03v-205.05c0-2.78,2.25-5.03,5.03-5.03h46.59v87.7l76.78-87.7h54.22c1.26,0,2.43.67,3.07,1.76h0c.77,1.32.61,2.98-.4,4.13l-80.06,91.4,84.23,111.87c.9,1.19.99,2.81.24,4.1Z"/><path class="c" d="m239.95,883.92c2.32,25.15,21.18,37.73,44.01,37.73,16.24,0,33.1-5.82,44.37-16.88.85-.83,1.97-1.32,3.15-1.32h0c1.15,0,2.25.44,3.08,1.24l20.17,19.29c.88.84,1.38,2,1.38,3.22v.38c0,1.09-.38,2.15-1.11,2.96-18.62,20.89-48.37,28.84-73.35,28.84-51.96,0-91.34-34.75-91.34-86.37s36.4-87.03,88.36-87.03c24.49,0,45.67,8.61,60.89,23.17,15.22,15.22,24.16,36.4,24.16,61.55,0,4.96-.33,9.26-.99,13.24h-122.78Zm.33-29.12h73.8c-1.33-8.94-4.96-16.88-10.26-22.18-6.62-6.95-15.89-10.59-26.48-10.59-20.52,0-34.42,12.91-37.06,32.76Z"/><path class="c" d="m538.65,791.64c.87,1.19,1.04,2.76.46,4.11l-73.84,170.56c-14.89,34.75-37.4,43.68-60.23,43.68-11.66,0-21.53-2.4-29.3-6.64-.75-.41-1.35-1.06-1.73-1.82l-.32-.64c-.48-.96-.58-2.07-.27-3.1l8.25-27.97c.35-1.18,1.19-2.15,2.32-2.66h0c1.14-.52,2.43-.5,3.56.03,3.94,1.84,9.4,3.09,14.85,3.09,6.62,0,14.23-1.65,19.52-13.24l6.95-14.56-67.28-146.97c-.56-1.22-.46-2.63.26-3.76h0c.72-1.14,1.98-1.83,3.33-1.83h48.13l40.04,103.91,39.71-103.91h42.22c1.33,0,2.58.64,3.37,1.71h0Z"/><path class="c" d="m724.85,795.67l-71.53,159.73h-36.73l-71.6-159.88c-.55-1.22-.44-2.63.27-3.75h0c.73-1.14,1.99-1.84,3.35-1.84h46.14l40.37,110.2,43.02-110.2h42.99c1.27,0,2.46.61,3.21,1.63l.11.15c.84,1.15.99,2.66.41,3.96Z"/></g><path class="c" d="m716.25,377.08c5.48-3.12,8.75-8.74,8.75-15.04,0-6.3-3.27-11.92-8.75-15.04h0s-84.19-47.93-84.19-47.93h0s0,0,0,0l-28.24,16.08-82.36,46.9,110.6,62.98,84.18-47.95Zm-348.25-90.76l-132.98,75.73h0s0,0,0,0l132.98,75.73,132.97-75.73h0s0,0,0,0l-132.97-75.73Zm348.25,198.31l-84.19-47.93-264.06,150.38L103.94,436.7l-84.18,47.93c-5.48,3.12-8.75,8.75-8.75,15.05s3.27,11.93,8.76,15.05l348.25,198.31,348.25-198.31c5.48-3.12,8.75-8.75,8.75-15.05,0-6.3-3.27-11.93-8.75-15.05ZM19.75,377.08l84.19,47.96,55.3-31.49,55.3-31.49-110.6-62.98h0s0,0,0,0l-84.18,47.93c-5.48,3.12-8.75,8.74-8.75,15.04s3.27,11.92,8.75,15.04Zm0-137.63l84.19,47.96,264.06-150.41,264.06,150.41,84.18-47.95c5.48-3.12,8.75-8.74,8.75-15.04s-3.27-11.92-8.75-15.04h0S368,11.03,368,11.03L19.75,209.37c-5.48,3.12-8.75,8.74-8.75,15.04s3.27,11.92,8.75,15.04Zm94.43,191.42l253.82,144.55,253.82-144.55-110.6-62.98-143.22,81.57-143.22-81.57-55.3,31.49-55.3,31.49Zm481.64-122.82l26-14.81-253.82-144.57-253.82,144.57,110.6,62.98,143.22-81.57,143.22,81.57,84.6-48.18Z"/></svg>