<?xml version="1.0" encoding="UTF-8"?><svg id="a" xmlns="http://www.w3.org/2000/svg" viewBox="0 0 1420 540"><defs><style>.c{fill:#fff;}</style></defs><g><path class="c" d="m851.66,382.86h0c-.71,1.21-2.01,1.96-3.41,1.96h-56.19s-70.43-92.97-70.43-92.97l-16.9,19.37v73.6h-49.58c-2.96,0-5.35-2.4-5.35-5.35v-218.2c0-2.96,2.4-5.35,5.35-5.35h49.58v93.32l81.7-93.32h57.7c1.35,0,2.59.71,3.27,1.88h0c.82,1.4.65,3.17-.42,4.39l-85.19,97.26,89.63,119.05c.96,1.27,1.06,2.99.26,4.37Z"/><path class="c" d="m893.63,308.75c2.46,26.76,22.54,40.15,46.84,40.15,17.29,0,35.22-6.2,47.22-17.96.9-.88,2.09-1.41,3.35-1.41h0c1.22,0,2.39.47,3.28,1.31l21.46,20.53c.94.89,1.46,2.13,1.46,3.43v.41c0,1.16-.41,2.28-1.18,3.15-19.82,22.23-51.48,30.69-78.06,30.69-55.29,0-97.2-36.98-97.2-91.91s38.74-92.62,94.03-92.62c26.06,0,48.6,9.16,64.8,24.65,16.2,16.2,25.71,38.74,25.71,65.5,0,5.28-.35,9.86-1.05,14.09h-130.65Zm.35-30.99h78.53c-1.41-9.51-5.28-17.96-10.92-23.6-7.04-7.39-16.9-11.27-28.17-11.27-21.83,0-36.63,13.73-39.44,34.86Z"/><path class="c" d="m1211.48,210.56c.92,1.27,1.11,2.93.48,4.37l-78.58,181.5c-15.85,36.98-39.8,46.49-64.1,46.49-12.41,0-22.91-2.56-31.18-7.06-.8-.44-1.44-1.12-1.84-1.94l-.34-.68c-.51-1.02-.62-2.2-.29-3.3l8.78-29.77c.37-1.26,1.27-2.29,2.46-2.84h0c1.21-.55,2.59-.53,3.79.03,4.2,1.96,10,3.29,15.81,3.29,7.04,0,15.14-1.76,20.78-14.09l7.4-15.49-71.59-156.4c-.59-1.3-.49-2.8.28-4h0c.77-1.21,2.11-1.95,3.54-1.95h51.22l42.61,110.58,42.26-110.58h44.93c1.42,0,2.75.68,3.59,1.82h0Z"/><path class="c" d="m1409.63,214.84l-76.12,169.98h-39.09l-76.19-170.13c-.58-1.3-.47-2.8.29-3.99h0c.77-1.22,2.12-1.95,3.56-1.95h49.1l42.96,117.27,45.78-117.27h45.74c1.35,0,2.62.65,3.41,1.74l.11.16c.89,1.22,1.06,2.83.44,4.21Z"/></g><path class="c" d="m18.99,381.73c-3.78-2.16-6.04-6.04-6.04-10.39s2.26-8.23,6.04-10.39l61.58-35.06,194.4,110.71,194.4-110.71,61.58,35.06c3.78,2.16,6.04,6.04,6.04,10.39s-2.26,8.23-6.04,10.39l-255.99,145.78L18.99,381.73Zm70.73-61.05l79.82-45.45,105.44,60.05,105.44-60.05,79.82,45.45-185.26,105.51-185.26-105.51Zm88.97-50.66l96.29-54.84,96.29,54.84-96.29,54.84-96.29-54.84Zm210.88,0l79.82-45.45,61.58,35.06c3.78,2.15,6.04,6.03,6.04,10.38s-2.26,8.23-6.04,10.38l-61.59,35.08-79.82-45.45Zm-370.57,10.37c-3.78-2.15-6.04-6.03-6.04-10.38s2.26-8.23,6.04-10.38l61.59-35.06,79.82,45.45-79.82,45.45-61.59-35.08Zm70.73-61.03l185.26-105.52,185.26,105.52-79.82,45.45-105.44-60.05-105.44,60.05-79.82-45.45Zm185.26-115.94l-194.4,110.73-61.59-35.08c-3.78-2.15-6.04-6.03-6.04-10.38s2.26-8.23,6.04-10.38L274.97,12.5l256.06,145.83c3.74,2.16,5.97,6.02,5.97,10.34s-2.26,8.23-6.04,10.38l-61.58,35.08-194.4-110.73Z"/></svg>